# xmcd CD database file
#
# Track frame offsets:
#	150
#	15548
#	31326
#	51077
#	63894
#
# Disc length: 1039 seconds
#
# Revision: 0
# Processed by: cddbd v1.5.2PL0 Copyright (c) Steve Scherf et al.
# Submitted via: CDex 1.70beta2
#
DISCID=34040d05
DTITLE=SamplingMasters - overdrive hell15 時計仕掛けのヒズミ天国
DYEAR=2014
DGENRE=New Age
TTITLE0=Lesson.64 Devotchka in Depachika
TTITLE1=Lesson.65 Gulliver-banging
TTITLE2=Lesson.66 Ludovico technique
TTITLE3=Lesson.67 in-out-in-out-left-right-B-A
TTITLE4=Lesson.68 Rapid-Tolchock
EXTD=YEAR: 2014
EXTT0=
EXTT1=
EXTT2=
EXTT3=
EXTT4=
PLAYORDER=
